<svg id="Sushi_Kinta" data-name="Sushi Kinta" xmlns="http://www.w3.org/2000/svg" width="400" height="250" viewBox="0 0 400 250">
  <defs>
    <style>
      .cls-1, .cls-2, .cls-3 {
        fill-rule: evenodd;
      }

      .cls-2 {
        fill: #fff;
      }

      .cls-3 {
        fill: none;
      }

      .cls-4 {
        fill: #231f20;
      }
    </style>
  </defs>
  <g>
    <g>
      <path class="cls-1" d="M188.69,75.72c1.12-.06,2.2-.09,2,1.13C190.23,76.3,188.71,76.75,188.69,75.72Z"/>
      <path class="cls-1" d="M195.5,76.4c-.06,1.11-.95.21-1.82.68C193.67,76.24,194.69,76.43,195.5,76.4Z"/>
      <path class="cls-1" d="M191,78.67c-1,0-1-1-2.27-.68C188.93,77,191.36,77.49,191,78.67Z"/>
      <path class="cls-1" d="M195.5,78.44c-.79.15-1.41.17-2.5.46C193.23,78.11,195.27,77.2,195.5,78.44Z"/>
      <path class="cls-1" d="M191,79.81a4.32,4.32,0,0,0,1.81.22C193,80.76,190.45,80.83,191,79.81Z"/>
      <path class="cls-1" d="M213.21,80.94c-1.12,2.75-1.6,6.12-4.31,7.27-.07-.47-.61-.46-.91-.68.71-3,2.68-4.74,3.63-7.5C212.62,79.86,212.55,80.77,213.21,80.94Z"/>
      <path class="cls-1" d="M193.23,81.62c-.36,1.66-3.26.78-3.86,0C189.83,80.78,191.85,82.62,193.23,81.62Z"/>
      <path class="cls-1" d="M196.18,91.16c-2,.52-3.68-1.14-5.22-1.82-1,0-1.15.82-1.82,1.14.85,1.34,4.24.15,5.22,1.36-.21,1.63-2.32-.43-3.18.45-.14,1.21,1.15,1,1.59,1.59,0,.66-1.28.54-1.59.23a3.6,3.6,0,0,0-.45,1.82c.37,1.14,2.73.3,3.63.9-.76,1.58-2.94.39-4.54.23-2-.19-4.19.31-5.22-.45.53-1.39,3.24-.41,4.54-.46,1.46-.6.28-2.3-.23-3,.29-.31,1.08-.14,1.37-.45-.17-1-1.61-.67-2.05-1.36-1,.13-1.8,1.42-2.95.68,1.57-1.61,4.3-2.06,5.22-4.32H191c.79,0,.71.8,1.13,1.14C193.2,89.9,195.56,89.66,196.18,91.16Z"/>
      <path class="cls-1" d="M186.87,93.2c.71.17,1.66.9,1.14,1.59C187.05,94.87,186.31,93.93,186.87,93.2Z"/>
      <path class="cls-1" d="M196.86,93.43c-.31,1-1.51,1.21-2.72,1.36C194.2,93.58,196.06,93.17,196.86,93.43Z"/>
      <path class="cls-2" d="M179.15,97.29a2.86,2.86,0,0,1-2.5,1.36A1.65,1.65,0,0,1,179.15,97.29Z"/>
      <path class="cls-2" d="M179.83,99.11c0,1.59-1.29,1.88-2.27,2.49C176.87,100.32,179,98.88,179.83,99.11Z"/>
      <path class="cls-1" d="M213.89,106.83c.71-.11,1,.19.91.9h-.91Z"/>
      <path class="cls-1" d="M209.58,107.73c.71-.1,1,.2.9.91h-.9Z"/>
      <path class="cls-1" d="M212.53,108.19c.09.93-.75.92-.46,2-.47.1-.6-.15-.9-.23.29-.8.51-.82.22-1.81A1.41,1.41,0,0,1,212.53,108.19Z"/>
      <path class="cls-1" d="M218.89,108h.68c.06.37-.22.39-.23.68h-.45Z"/>
      <path class="cls-1" d="M226.61,108.87c-.65,0-1.24,0-1.14-.68C225.94,107.72,226.62,108.19,226.61,108.87Z"/>
      <path class="cls-1" d="M205.94,108.19c.3.08.36.4.68.45,0,.58-.84.54-1.13.23C205.57,108.57,205.89,108.51,205.94,108.19Z"/>
      <path class="cls-1" d="M215.25,108.42h.68c.1.47-.15.6-.22.9C215.31,109.27,215.19,108.93,215.25,108.42Z"/>
      <path class="cls-1" d="M222.29,108.64c.71-.1,1,.2.91.91h-.91Z"/>
      <path class="cls-1" d="M218.2,109.32c-.06.53-.6.53-.9.23C217.36,109,217.9,109,218.2,109.32Z"/>
      <path class="cls-1" d="M203.45,109.55c.36,0,.86-.11.9.23C204.6,110.57,203,110.39,203.45,109.55Z"/>
      <path class="cls-1" d="M208.44,109.55h.46c-.05.19.08.21.22.23v.45c-.19,0-.21.09-.22.23h-.46c0-.19-.09-.22-.23-.23v-.45C208.41,109.82,208.43,109.69,208.44,109.55Z"/>
      <path class="cls-1" d="M214.12,109.55c.4.06.52.39.45.91-.47.09-.6-.16-.91-.23C213.74,109.93,214.06,109.87,214.12,109.55Z"/>
      <path class="cls-1" d="M234.55,115.23c-2-1.43-4.33-1.52-6.58-2.27-.6.18.51,1.06-.46,1.13-.95-.14-.83-.5-.68-1.36-.52-.24-1.37-.14-1.81-.45-.76.43.39,1.45-.23,1.81-1.28.14-1-1.31-1.36-2a50,50,0,0,0-8.86,0c-.53.07-.51.7-.91.91-.8-1-4.06-.85-4.08.9-1.05-1.31-2.36.09-4.09,0,0-2.06,3.89-.34,3.86-2.49.85-.24.36.85,1.13.68.19,0,.23-.23.46-.23.57.11-.55-1,.23-1.13.59-.07.58.47.68.9,1.46.18,2.46-.1,3-.9,1.33.72,2.42.29,4.31.45.73-.41.78-1.49,1.82-1.59.63.63-.2,1-.23,1.59,1.25.28,1,0,1.82-.45a1,1,0,0,1,.23.68c4,.65,8.31.92,11.35,2.49.83,0,.87-.31,1.59,0,1,2.55,4.88,3.43,4.31,6.82-2-.8-1.72-4.19-4.31-4.54C235.24,117,233.8,116.11,234.55,115.23Z"/>
      <path class="cls-1" d="M224.79,110.23c-.34.36-1.29.33-1.14-.45C224,109.42,225,109.45,224.79,110.23Z"/>
      <path class="cls-1" d="M227.06,109.55c.3.08.36.4.68.45-.05.4-.39.52-.91.46C226.74,110,227,109.86,227.06,109.55Z"/>
      <path class="cls-1" d="M229.56,111.37c-.34.36-1.3.33-1.14-.46C228.76,110.55,229.72,110.58,229.56,111.37Z"/>
      <path class="cls-1" d="M207.31,111.37h.45v.68h-.68C207,111.68,207.29,111.66,207.31,111.37Z"/>
      <path class="cls-1" d="M232.74,111.59c.09.48-.16.61-.23.91a.66.66,0,1,1,.23-.91Z"/>
      <path class="cls-1" d="M205.26,111.59c.68,0,.61,1.36-.22,1.14C204.54,112.26,205.06,112,205.26,111.59Z"/>
      <path class="cls-1" d="M219.79,112.05c.47.16.93.68.46,1.13C219.46,113.34,219.43,112.39,219.79,112.05Z"/>
      <path class="cls-1" d="M218.2,112.73v.68c-.47.1-.6-.16-.9-.23C217.35,112.78,217.69,112.67,218.2,112.73Z"/>
      <path class="cls-1" d="M214.12,113.64c.36-.07.39.21.68.22,0,.19-.23.23-.23.46h-.45Z"/>
      <path class="cls-1" d="M221.61,113.86v.69c-.4-.06-1.14.22-.91-.46A1.35,1.35,0,0,1,221.61,113.86Z"/>
      <path class="cls-1" d="M206.4,114.09c.6-.07.74.32.68.91C206.28,115.17,206.06,114.41,206.4,114.09Z"/>
      <path class="cls-1" d="M212.3,114.55c0-.09.48-.41.68-.23C213.43,114.71,212,115.4,212.3,114.55Z"/>
      <path class="cls-1" d="M191,115c-.27.79-.78.63-1.37.23C189.82,114.48,190.51,114.45,191,115Z"/>
      <path class="cls-1" d="M233,116.14c-.56,0-1.1,0-1.13-.46C231.86,114.69,233.31,115,233,116.14Z"/>
      <path class="cls-1" d="M209.35,115.45c.68-.22.4.51.45.91h-.68C209,115.89,209.28,115.76,209.35,115.45Z"/>
      <path class="cls-1" d="M190.5,115.91a1.46,1.46,0,0,1,1.14.23c.1.7-.49.72-1.14.68Z"/>
      <path class="cls-1" d="M206.4,116.14a.63.63,0,0,1-.68.45C205.61,116.1,206,116.16,206.4,116.14Z"/>
      <path class="cls-1" d="M236.37,117.5a.82.82,0,0,1-1.36-.68A.82.82,0,0,1,236.37,117.5Z"/>
      <path class="cls-1" d="M184.83,117.72c.71-.1,1,.2.9.91C185,119,184.74,118.71,184.83,117.72Z"/>
      <path class="cls-1" d="M238.19,120a1,1,0,0,0-.23.68,1.51,1.51,0,0,1-1.14-.23v-.68C237.3,119.27,237.83,119.72,238.19,120Z"/>
      <path class="cls-1" d="M194.59,121.81c-1.19.72-1.54-1.12-2.5-1.36C192.84,119.38,194.44,120.82,194.59,121.81Z"/>
      <path class="cls-1" d="M196,120a1.47,1.47,0,0,1,1.14.22c.1.71-.49.73-1.14.68Z"/>
      <path class="cls-1" d="M190.28,121.36V122C188.74,123,188.74,120.38,190.28,121.36Z"/>
      <path class="cls-1" d="M192.32,122v.68a1.11,1.11,0,0,1-1.36,0A.82.82,0,0,1,192.32,122Z"/>
      <path class="cls-1" d="M187.78,123.63c-.43.4-1.59.25-1.36-.68A.82.82,0,0,1,187.78,123.63Z"/>
      <path class="cls-2" d="M234.1,129.3c.77,1.88,1.23,4.08,2,5.91A7.79,7.79,0,0,1,234.1,129.3Z"/>
      <path class="cls-1" d="M164.62,135.89c-.86-.86-1.3-1.36-1.36-2.27-.29-4,6.92-5.32,5.9-.23C168.83,135,167.05,135.87,164.62,135.89Zm-.23-3.41c-.57,3.79,4.43,2.2,3.63-.68-.17-.44-1-1.37-1.59-.68a1.45,1.45,0,0,1,1.14,1.36C167.84,135.06,164.28,134.57,164.39,132.48Z"/>
      <path class="cls-1" d="M215,146.56c.26,0,.4.05.45.23.29,3,.55,6.58-1.59,7.72C212.45,152.23,213.91,148.39,215,146.56Z"/>
      <path class="cls-1" d="M177.79,155.42c1.35.56,1.32,3.63,1.13,5a2.49,2.49,0,0,1-2-1.13A29.08,29.08,0,0,0,177.79,155.42Z"/>
      <path class="cls-1" d="M229.78,113.86a1.27,1.27,0,0,1,.23.91c-1.3-.23-.57.5-.91.91-.71.11-1-.2-.9-.91C229.49,115.23,228.78,113.69,229.78,113.86Z"/>
      <path class="cls-3" d="M210.48,164.27c1.55-.3,3.23-.27,4.77-.68a45.63,45.63,0,0,0,7.95-3.18c7.36-3.57,14.24-8.51,19.07-14.3,6.84-8.21,12.29-19.37,12.72-31.79a55.18,55.18,0,0,0-21.34-45.64A53.4,53.4,0,0,0,200.27,58c-15,.23-27.23,6.72-36.33,15.66a54.62,54.62,0,0,0-16.12,35.43A51.31,51.31,0,0,0,159.17,145a52.11,52.11,0,0,0,8.17,8.63c1.55,1.26,3.49,2.09,4.77,3.63-.67,1.53-2.44,2-2.5,4.09,1,1.25,3.2-.32,3.86,0a21.19,21.19,0,0,1-1.81,3.63c-.66,1.09-1.25,2.74-2.73,3a29.54,29.54,0,0,1,.46-7.95c-.67-.24-.67-1.15-1.82-.91-.61,1.55-.17,3.47-.45,5.22-.4,2.5-1.23,5.26-2.5,6.59a7,7,0,0,1-.68-3.41c0-1.89,1.32-5.23-.91-5.9-1.05.47-1.18,1.86-1.59,2.72a89.47,89.47,0,0,1-5,8.63c-3.07-.82-5.85.47-8.4.91a140.34,140.34,0,0,1,10.22-11.35c.86-.87,3.76-2.4,1.82-4.09-1.1-.21-1.84,1.13-2.5,1.82-2.43,2.52-4.45,4.7-7,7.26-1.44,1.43-2.76,3-4.54,5-1.53,1.74-6.14,4.89-3.41,6.81a7,7,0,0,0,2.73-1.59c2.59-1.81,6.19-3.76,10-2.73-2.13,3.88-4.45,8.39-6.36,12.49-.54,1.17-2.23,3.09-.68,4.32.92.84,1.39-.65,2-1.14a38.68,38.68,0,0,0,6.13-5.45c1.7-2,4.28-5.4,4.32-7.72,0-2-1.28-2.88-2.27-4.31,1.38-2,2-4.78,3.86-6.36.07,3,0,6.72,2.27,6.59,1.53-.1,2-2.77,2.72-4.32.74.32.61,1.51,1.82,1.36.58-1.12,1.4-.59,2.72-.9,1.81-1.57,4.33-3.39,4.55-6.36a17.84,17.84,0,0,0-.46-2.5c0-.82.88-2,0-2.73a37.56,37.56,0,0,0,1.36-7.72c0-2.81-1.52-6.34.68-7.94,2,1.18,1.05,4.87,1.37,7.26.1.79,0,2,.68,2.27,1-.86,1.44-3.36,2.95-2.95.84,2,.43,5.32,1.36,7.27,3.35-2.11,2.45-8.46,5.45-10.9,1.07,1.58.33,5,.91,7,.93.33,1.68-.77,2.27-1.36s1.36-1.35,2-2c1.23-1.24,2.66-3.75,4.55-3.4-.06,2-2.22,2.76-4.09,4.76-2.25,2.42-5.64,7.75-6.59,1.37-2.21,1.8-1.68,6.34-4.54,7.49-2.52-.58-1.17-5-2.72-6.58-1.6,1.67-2.1,5.77-1.14,8.62a45,45,0,0,0,8,3c2.33.54,5.12.19,7,1.58-.83,2.43-.79,5.73-2.73,7-.22-1.14-.47-2.72-.68-4.31-.17-1.3.28-3.63-1.59-3.41-.93.82-.47,2.33-.68,3.41a44.4,44.4,0,0,1-1.36,4.77,22.41,22.41,0,0,1-1.82,4.54c-1.78,2.63-4.18,1-6.81.23-1.92-.59-3.46-.65-3.4-2.5,0-1.43,2.43-3.16,3.4-4.32a41.34,41.34,0,0,0,3.41-4.54c1.42-.49,1.88-2.78.22-2.95-1-.1-2.46,2.48-3.63,3.86-1.45,1.72-2.48,3.41-3.63,3.86.07-1.28.13-2.55-1.36-2.27-1.14.6-.13,3.15-.46,5-.69,1-2,1.36-2,3,.28,1.16,2.1.77,2.5,1.81.18,1.21.65,2.79.9,4.32s-.2,3.72,1.82,3.63c1.35-2-.82-5.26,0-7.49,2.88.64,5.44,2.57,8.63,1.59,2.33-2.66,3.07-6.92,4.54-10.45.67,1.68,0,4.71,2.27,4.77a14.39,14.39,0,0,0,2.95-5c.52-1.68,0-3.8,1.37-5,2.09.48,1,4.12,3,4.77,1.74-.45.83-2.55.91-4.32C204.23,165.22,207.43,164.88,210.48,164.27Zm-33.6-5a2.49,2.49,0,0,0,2,1.13c.19-1.36.22-4.43-1.13-5A29.08,29.08,0,0,1,176.88,159.28Z"/>
      <path class="cls-1" d="M201.18,165.63c-.08,1.77.83,3.87-.91,4.32-1.92-.65-.86-4.29-3-4.77-1.35,1.2-.85,3.32-1.37,5a14.39,14.39,0,0,1-2.95,5c-2.29-.06-1.6-3.09-2.27-4.77-1.47,3.53-2.21,7.79-4.54,10.45-3.19,1-5.75-.95-8.63-1.59-.82,2.23,1.35,5.45,0,7.49-2,.09-1.57-2.14-1.82-3.63s-.72-3.11-.9-4.32c-.4-1-2.22-.65-2.5-1.81.07-1.59,1.35-2,2-3,.33-1.85-.68-4.4.46-5,1.49-.28,1.43,1,1.36,2.27,1.15-.45,2.18-2.14,3.63-3.86,1.17-1.38,2.63-4,3.63-3.86,1.66.17,1.2,2.46-.22,2.95a41.34,41.34,0,0,1-3.41,4.54c-1,1.16-3.36,2.89-3.4,4.32-.06,1.85,1.48,1.91,3.4,2.5,2.63.79,5,2.4,6.81-.23a22.41,22.41,0,0,0,1.82-4.54,44.4,44.4,0,0,0,1.36-4.77c.21-1.08-.25-2.59.68-3.41,1.87-.22,1.42,2.11,1.59,3.41.21,1.59.46,3.17.68,4.31,1.94-1.31,1.9-4.61,2.73-7-1.92-1.39-4.71-1-7-1.58a45,45,0,0,1-8-3c-1-2.85-.46-7,1.14-8.62,1.55,1.55.2,6,2.72,6.58,2.86-1.15,2.33-5.69,4.54-7.49,1,6.38,4.34,1.05,6.59-1.37,1.87-2,4-2.74,4.09-4.76-1.89-.35-3.32,2.16-4.55,3.4-.68.7-1.4,1.41-2,2s-1.34,1.69-2.27,1.36c-.58-2.07.16-5.46-.91-7-3,2.44-2.1,8.79-5.45,10.9-.93-1.95-.52-5.23-1.36-7.27-1.51-.41-2,2.09-2.95,2.95-.67-.32-.58-1.48-.68-2.27-.32-2.39.58-6.08-1.37-7.26-2.2,1.6-.63,5.13-.68,7.94a37.56,37.56,0,0,1-1.36,7.72c.88.76,0,1.91,0,2.73a17.84,17.84,0,0,1,.46,2.5c-.22,3-2.74,4.79-4.55,6.36-1.32.31-2.14-.22-2.72.9-1.21.15-1.08-1-1.82-1.36-.71,1.55-1.19,4.22-2.72,4.32-2.24.13-2.2-3.57-2.27-6.59-1.83,1.58-2.48,4.33-3.86,6.36,1,1.43,2.3,2.34,2.27,4.31,0,2.32-2.62,5.76-4.32,7.72a38.68,38.68,0,0,1-6.13,5.45c-.65.49-1.12,2-2,1.14-1.55-1.23.14-3.15.68-4.32,1.91-4.1,4.23-8.61,6.36-12.49-3.8-1-7.4.92-10,2.73a7,7,0,0,1-2.73,1.59c-2.73-1.92,1.88-5.07,3.41-6.81,1.78-2,3.1-3.57,4.54-5,2.59-2.56,4.61-4.74,7-7.26.66-.69,1.4-2,2.5-1.82,1.94,1.69-1,3.22-1.82,4.09A140.34,140.34,0,0,0,148,173.81c2.55-.44,5.33-1.73,8.4-.91a89.47,89.47,0,0,0,5-8.63c.41-.86.54-2.25,1.59-2.72,2.23.67.88,4,.91,5.9a7,7,0,0,0,.68,3.41c1.27-1.33,2.1-4.09,2.5-6.59.28-1.75-.16-3.67.45-5.22,1.15-.24,1.15.67,1.82.91a29.54,29.54,0,0,0-.46,7.95c1.48-.22,2.07-1.87,2.73-3a21.19,21.19,0,0,0,1.81-3.63c-.66-.32-2.9,1.25-3.86,0,.06-2.13,1.83-2.56,2.5-4.09-1.28-1.54-3.22-2.37-4.77-3.63a52.11,52.11,0,0,1-8.17-8.63,51.31,51.31,0,0,1-11.35-35.87,54.62,54.62,0,0,1,16.12-35.43C173,64.73,185.3,58.24,200.27,58a53.4,53.4,0,0,1,33.38,10.67A55.18,55.18,0,0,1,255,114.32c-.43,12.42-5.88,23.58-12.72,31.79-4.83,5.79-11.71,10.73-19.07,14.3a45.63,45.63,0,0,1-7.95,3.18c-1.54.41-3.22.38-4.77.68C207.43,164.88,204.23,165.22,201.18,165.63ZM223,121.36c2.29.67,3.18,4.36,5.45,4.54,2,.15,2.49-2,4.54-2.5,1.86,2.39-1.52,4.54-1.36,7.27.09,1.55,1.29,3.28,2.05,4.54s1.61,3.06,3.17,3.4c1.28-.81,1.15-2.15,1.82-3.4,1.59-3,4.56-4.8,3.86-10a9.8,9.8,0,0,0,.91-2c-.83-.15-.87.5-1.59.46a15.51,15.51,0,0,1-.91,7,17.06,17.06,0,0,0-2.5,3.18c-.69,1.09-1,2.88-2.49,3.18-1.48-2.64-3.53-5.07-2.73-8.63.45-2,1.91-3.21,1.59-5s-2-2.57-3.86-3.18c-.3,1.66,1.59,1.14,1.82,2.27-1.16,1-2.66,1.59-3.86,2.5-2.79-1.45-3.1-5.19-7.27-4.77-3.92.4-9,2.31-11.35,4.32,1.24.08,1.56,1.34,2.27,2s2.17,1.12,2,2.5c-3.58,2-7-.72-9.76-1.59-3.19,2.42-8,4.62-11.81,6.36-1.44.65-3,1-4.54,1.59-2,.82-3.64,2-5.68,2.72a45.94,45.94,0,0,1-6.58,2c-.89.17-2.23.07-3.18.23s-1.89.63-3,.91-2.44.38-3.41.68c-2.16.68-4.06,2.39-5.22.45-.41-1.25,1.94-1.87.91-2.27-1.6.23-2.15,1.49-3.86,1.59-1.45-1.25-.27-2.58,0-3.86.92-4.39,1.93-8,3.86-11.12.61-1,1.7-1.63,2.5-2.73.5-.7.62-1.8,1.13-2.5.68-.93,1.9-1.71,2.73-2.72,3.07-3.79,5.81-8.41,9.53-10.9a8.88,8.88,0,0,1-.23-4.77c-.15-.2-1.3.19-1.36-.68a3.89,3.89,0,0,1-.22-2.27c-.24-.67-1.31-.51-1.37-1.36.82-.93,1.11-2.38,2.27-2.95-2.16-2.15-3.43-5.19-4.54-8.4-1.68-.8-2.11-2.61-1.36-4.77a27,27,0,0,0-5.22-5.45c-.7-.62-2.12-1.32-1.59-2.5,1.88.21,2.6,2,3.63,3.18s2.47,2.25,3.63,3.4a39.87,39.87,0,0,0-2.95-4.08c-.94-1.29-2.63-2.7-2.27-4.54,2.89,1.67,4,6.93,7,8.17.59.24,1.31-.13,1.82,0,1,.27,1.36,1.08,2,2a3.14,3.14,0,0,0,2.27,4.09c.61,0,1.55-.95,2.73-1.59a14,14,0,0,1,5.22-1.81c-1-2.55-4.77-2.35-5.91-4.77a18.29,18.29,0,0,1,6.82-9.54c-.24-4.37,3.41-6.33,7.49-5a9.09,9.09,0,0,1,1.59,4.77,10.64,10.64,0,0,0-.23,2.05c.27,1.29,1.67,2.42,2.27,3.86a25,25,0,0,1,1.37,6.58c-1.07,1.06-3.72.53-4.77,1.59,3.55.38,5.23,2.64,7.72,4.09,3.77-1.6,4.42-6.33,7.26-8.86A8.41,8.41,0,0,1,213,78c1.07-1.63,2.12-3.26,3.18-5s1.84-3.74,3.41-5a9.92,9.92,0,0,1,.68,4.77c-.35,2.74-2.49,5.09-2.5,7,3.07-2.41,4.69-9.59,1.82-13.4-3.2,2.85-4.61,7.5-7.27,10.9-4.68,1.22-4.26,7.55-8.4,9.31-1.49-1.24-3.25-2.2-4.54-3.64.84-.37,2.37,0,2.95-.68A23.17,23.17,0,0,0,200,73.45a20.33,20.33,0,0,1-1.36-2.5c-.82-2.87-.08-6-2.05-7.27-3.66-2.43-8.9.85-8.85,5.45a18.2,18.2,0,0,0-7.27,10.45c1.51,1.74,4.54,2,5.91,3.63a34.07,34.07,0,0,0-6.82,2.73c-1.52-.27-.75-1.94-1.13-3.18a5.72,5.72,0,0,0-1.59-1.82c-1-.65-2.14-.41-3.41-1.13-2.13-2.64-3.53-6-6.13-8.18a3.31,3.31,0,0,0-1.59,2.5,2.26,2.26,0,0,0-2.49,2.27c2.61,2.15,5.3,4.23,7.26,7-.38.37-.18,1.33-.23,2,.37,1,1.32,1.44,2.05,2.73s.77,2.69,1.36,3.86,1.9,1.84,2,3c.21,1.61-.93,2.62-1.59,4.09,1.36.85,1.95,2.41,2.5,4.08.08.23.42-.06.46.46.08,1.16-.17,2.29.45,3.4a71.59,71.59,0,0,0-9.76,11.58c-2.44,1.9-4.82,5.43-6.82,9.09-1.83,3.36-5.08,10.38-2.95,14.3,1,.33,1.34,0,2.5,0-.15,1,.39,1.27.68,1.82,2.11.9,4-.55,5.91-1.14,3-.91,6.31-1.3,8.85-1.82a26.54,26.54,0,0,0,4.32-1.36c1.39-.47,3.27-.4,4.54-.91.71-.28,1.23-.9,1.81-1.13,3.65-1.45,7.63-2.95,10.68-4.54,1.19-.63,2.63-1,3.63-1.59,1.86-1.07,2.9-2.51,4.31-2.5,2.06,0,3.67,2.27,5.91,2.27a5.58,5.58,0,0,0,4.76-2.5c-.79-1.93-2.59-2.86-3.86-4.31a8.8,8.8,0,0,1,4.32-2m-24.52-57A1.23,1.23,0,0,0,193,66.64c.65-.49,1.67-.6,1.82-1.59A4.2,4.2,0,0,0,191.87,65.27Zm2,2c1.24.72,1.85,2.08,3.18,2.72C197.19,67.63,195.6,64.76,193.91,67.32Zm-4.09,1.59a2.94,2.94,0,0,0,1.82-1.82c-.21-.4-.42-.79-1.14-.68C190.4,67.37,189.61,67.63,189.82,68.91Zm.91,1.13c.9,1.07,3.53,1.09,5.22.68C195.08,68.43,191.51,66.46,190.73,70Zm23.84,7.72c3.42,3.25,5-5.37,4.54-7.49-.05-.18-.19-.27-.45-.23C217.32,72.63,215.37,74.62,214.57,77.76ZM188,74.36c-1.94,3.38-1.3,8.68,2,9.53,5.14,1.32,8.19-4.43,5.9-9.08C193.12,74.35,190.77,74.66,188,74.36Zm21.11,9.53c-.6,1.1-4.11,4.75-5,4.77-1.78,0-3.45-3.4-5.45-4.09a4.89,4.89,0,0,0-3.18,0,29,29,0,0,0,5.22,7.5,12.42,12.42,0,0,0,3.86,3c4.49-2.7,6.19-8.2,9.76-11.81V80.49C210.84,76.92,210.38,81.59,209.12,83.89Zm6.81-1.59c-.14,1.75-2.44,3.15-3.4,4.54-.69,1-.88,2.35-1.59,3.41-1.41,2.1-3.69,3.13-4.32,4.77a4.23,4.23,0,0,1,1.82-.23,1.62,1.62,0,0,1,0-1.36c1.32-.74,2.54-2.5,3.41-3.63.33-.44.93-1,1.13-1.37s0-.85.23-1.13c1.47-2.15,4.18-3.44,3.63-7.27-.77-.21-.83-1.14-2-.91m-42.69,6.59c3.56,2.42,2.13,9.83,8.18,9.76,2.22-4.13,5.56-7.15,8.17-10.9-4.19.13-6.43,2.2-8.86,4.09-.72-1-1.34-2.13-2.72-2.5.1.77-.48,1.34-.91.91-.46-1.21.71-2.57.46-4.31C174.54,80.94,171.41,82.34,172.11,85.71Zm17.94-.91c-2.42,1.79-4.29,4.55-6.13,6.81-1.28,1.57-2.39,2.61-2.73,4.77.77.37,1,1.28,1.14,2.27,2.14,2.48,3.74,5.5,6.81,7,2.6-5.34,8.11-7.79,13.85-10-3-3.56-6.37-6.8-8.63-11.13C192.7,84.4,191.32,85.28,190.05,84.8ZM206.4,96.15a2.56,2.56,0,0,0,2,1.82c.2-1-.38-1.29-.45-2C207.38,95.93,206.69,95.84,206.4,96.15Zm-2.27.46c-.29,0-.32-.29-.68-.23-3.4,1.23-10.5,4.18-11.81,7.27a19.85,19.85,0,0,0-.46,7.26c.49,2.08,2.43,3.23,3.18,4.77,1.26,1.1,4.67,0,5.68,1.36-.49,1.26-1.42,2.06-1.36,3.86,2.34.23,5.23-2.87,5.45-5,.31-3.1-2.5-4.28-3.86-6.36a6,6,0,0,0,1.81-3.63c2.61.4,4.44-2.67,4.32-5-.69-.68-1.69-1-2.27-1.81C204,98.12,204.41,97,204.13,96.61Zm8.4.45c6.57,1.21,11.68,4.31,16.35,7.27,4-1,7.68-.44,9.31,2.5.09,1.22-1.79,1.44-1.37,2.27,2.32.34,2.07-1.87,2.27-3.64-2.21-.51-2.74-2.33-4.76-2.72-1.8-.35-3.41.75-5.23.45-1.31-.21-3.57-2.23-5-3-3.72-1.87-8.93-4.15-14.08-3.86C210.57,97.3,211.78,96.92,212.53,97.06Zm-33.38.23a1.65,1.65,0,0,0-2.5,1.36m30.43.91c-.81-.48-.43-2.15-1.82-2C205,98.91,206.35,99.9,207.08,99.56Zm7,21.34a47.85,47.85,0,0,1,7.49-1.81,25,25,0,0,1,7.27-.46c2.27.29,6.74,2.26,7,4.77.1.91-.67,2.22-.69,2.73,0,.25.45.16.46.22.21,1.48,1.34,3.73.45,5.23a9.49,9.49,0,0,0-.68-2.05,6.1,6.1,0,0,0,1.36,4.77c1-.94-1-1.73-.22-2.5.45.23.36,1,1.13.91.64-1.56-2.09-5.6-1.81-7,.1-.53,1.23-2,2-1.13-.13-1,.88-1.51,1.36-1.14.52.62.3,2,1.14,2.27V123c.5-.87,2.37-.35,2.49-1.59-.83-.3-1.95-.32-2.27-1.14.55-1.39-.26-3.71,0-5.22-1.18,0-1.2,1.06-2.49.91-1.28-3.65-4.44-5.4-6.59-8.18-.31-1,.88-.48.68-1.36-.5-.6,0-1.29-.68-1.36-1.41-.28-1.29,1-2.5.91-2.23-2.1-4.63-3.08-8.17-4.77s-8.93-4-12.72-2c-.18.78.34.87.23,1.58-1.92,2.33-2.6,5.88-5.9,6.82a6.08,6.08,0,0,1-.68,1.81c1,1.7,3.12,3.24,3.4,5.23.42,3-3.81,7.92-6.13,7.72-2.65-.24-1.13-2.83-.91-4.55-1.27-.21-.43,1.69-1.59,1.59-.84.25-.36-.85-1.13-.68-3.62,1.07-7.37,2-9.77,4.32,1.33,3,4.05,6.12,2.73,10.44,3.14-.95,3-5.14,7.95-4.31a1.93,1.93,0,0,1,.22,1.36C202.74,128.72,208.21,123.09,214.12,120.9Zm-36.56-19.3c1-.61,2.27-.9,2.27-2.49m-.23,7.72c.4-.14,0-1.08.46-1.14,1.76.32,2.49-2.35,4.31-2.72-.38-1.14-1.41-1.62-1.81-2.73C179.54,100.26,177.67,104.68,179.6,106.83Zm5-3A72.59,72.59,0,0,0,171,117.27c-2.78,3.73-5.31,6.86-7.72,10.67a26.54,26.54,0,0,0-4.09,12.26c1.07.19,1.4-.6,2.27-.9,1-.37,2.23-.19,3.63-.69,2.74-1,4.68-5.42,6.59-2.72-2.17,2.67-7.18,2.51-8.4,6.13,1.72-.24,3.1-1.12,4.76-1.59,1.94-.55,3.83-.45,5.68-.91,3.26-.81,5.46-3.46,7.27-5.67.84-1,2.14-2,2.49-3,1.22-3.12-1.6-4.3-2.72-5.9s-1-3-2-4.77c-2.12,0-3.57,1-5,1.82s-2.8,2.17-4.54,2c2.91-1.93,5.35-4.33,9.76-4.77,2.17,1.62,1.7,5.88,4.54,6.82-.2-1.33-1.68-2.92-2.49-4.77-.53-1.19-.62-2.34-1.37-3-2-1.63-3.85,1.19-5.9.68,1.25-1.26,4.22-2.71,5.68-1.82,1.62,1,4.07,2.3,4.77,3.63.39.07,1.13-.64,1.36,0s-.74.18-.46.91c1,.29.37-1.15.91-1.36,1.06-.11,1.46.45,2.27,0,0-1,0-2.15,0-3.18,1.57.53,3.6,2.85,5,.91-.58-.31-1.65.74-1.59-.91,1.48-.31,2.33,1,4.31.45,0-1.34-2.51-.21-2.95-1.13v-1.36c-2.15-1.63-3.08-4.49-2.72-8.63-.64.11-1,.55-1.59.68C187.3,106.17,186.66,104.31,184.6,103.87Zm49.27.91c-.47.14-1.49-.28-1.59.23C232.75,104.87,233.77,105.29,233.87,104.78Zm2.5,1.59c.36-.63-1-.63-.91-.23C235.89,106.09,236,106.4,236.37,106.37Zm-2,1.14c.61-.14,1.8.29,2-.23C236,107.23,234.32,106.54,234.33,107.51Zm0,1.13c-.28,0-.14.25,0,.46,1.7,1.62,3.13,3.53,4.76,5.22,4.51-1.9,11.61-1.25,14.08,2a8.15,8.15,0,0,1-1.36,2.27c-2.82.11-4.29,1.85-5.9,3-.67.46-2.77.88-1.82,1.59a10.4,10.4,0,0,0,5.45-3.63c1.79.75,3.29-.6,4.09-1.59v-2.27c-2.64-3.63-9.24-4.3-14.08-2.27-1.4-1.4-3-2.65-3.63-4.77C235.09,108.84,234.71,108.24,234.33,108.64Zm8.62,6.81c2.1.41,4.74.26,5.68,1.82-2-.06-4.26-2-6.13-.68,2.49.24,3.89,1.56,6.36,1.82.54-.47-.31-.9.23-1.37.62.2,1.64.74,2.27.23C250.24,115.17,244.1,114.82,243,115.45Zm-1.13,2.5c1.92.16,3.59,1.68,5.22,1.36C246.53,117.73,242.94,116.82,241.82,118Zm-.23,1.14c1.45.22,2.19,1.14,3.86,1.13C245,119.22,242.33,118.34,241.59,119.09Zm-12.26,4.54c-.72-1.48-1.32-3.07-3-3.63C225.82,121.88,227.81,123.07,229.33,123.63Zm14.76-2.95c-.65-.05-1.5-1.06-2-.46C242.61,120.35,243.47,121.36,244.09,120.68Zm-59.72,4.54c.24.53.22,1.24.46,1.81.64,1.57,1.69,2.72,1.81,4.09a7.68,7.68,0,0,1-.68,3.63c1.78-.63,2.34-3.62,1.82-5.45-.82-2.87-3.35-7.39-5.22-8.4C182.57,123.07,183.73,123.78,184.37,125.22Zm46.32-2.5c.1-1.31-.81-1.61-1.81-1.82C229.14,121.85,229.56,122.64,230.69,122.72Zm10,5.68c-.21-1.68-1.27-2.52-1.81-3.86C239.26,126,239.22,128,240.68,128.4Zm-.9,1.59c.37-1.63-1.24-3.13-1.82-4.55C237.83,126.82,238.58,129.18,239.78,130Zm-33.16-2.73c.8.11,1.28-1.28,1.14-1.36C207.35,126.32,206.41,126.22,206.62,127.26Zm3.86.23c-.47-.13-.64-.56-1.36-.46C209,127.61,210.31,127.94,210.48,127.49Zm28.16,3.4c.35-1.11-.8-2.68-1.36-3.63C237.53,128.56,237.51,131.2,238.64,130.89Zm-4.09-2.72H235v-.45h-.46Zm1.59,7c-.81-1.83-1.27-4-2-5.91A7.79,7.79,0,0,0,236.14,135.21Zm-58.58,3.4c2.23-.34,3.62-1.52,5.9-1.81,1.28-1.55,3.46-4.88,1.37-7C183.36,133.67,180.39,136.07,177.56,138.61Zm15-6.13c.67-.17,1.91-.94,1.59-1.36C193.85,131.82,192.84,131.79,192.55,132.48Zm25.65,3.86c-3.74,2.69-6.19,6.68-9.53,9.77-.32-1.87.79-5.19-.91-5.68-.51,1.91-.09,4.76-.23,7-1.19,1.76-3.07,2.83-3.4,5.45,2,0,1.37-2.57,3.18-2.73a31.63,31.63,0,0,1-1.59,11.36c-2-.92-1.36-4.39-3.64-5-1.19.39-1.29,2.28-1.59,3.86s-1.17,3.66,0,4.32c1.39-.66,0-4.06,2-4.09.92,1.34,1.3,3.23,3.4,3.41,2.19-1.3,1.31-5.66,2.27-8.18,1.06.91.19,3.75,1.59,4.32,2,.37,2.13-3,2.5-5,1.83,2,3.95-.2,4.09-2.5.73-.05,1,.4,1.81.23,1.4-.89,2-2.57,3-3.86s2.37-2.47,3-4.09c-1.66.27-2.54,1.85-3.41,2.95s-1.5,2.74-2.95,3.41c-1.49-1.69.22-6.58-2.5-7-2.73,3.08-2.86,8.72-4.08,12.72-.11.33,0,1.6-.91,1.36a39.5,39.5,0,0,1-1.36-10.22c2.45-2.92,4.89-5.85,7.26-8.85,1.16-.66,2.34-1.3,2.73-2.73C218.6,136.56,218.57,136.28,218.2,136.34Zm-29.06,6.82a1.87,1.87,0,0,0,1.14-2.73C188,139.17,187.28,142.72,189.14,143.16Zm-16.57,16.57c.71,0,1.66.15,2-.23-.05-.42.25-.5.23-.9C174,157.63,172.52,158.49,172.57,159.73Zm19.52,2.5c.47-.37.53-1.14.46-2C191,158,188.88,162.57,192.09,162.23Zm3.64,3c1.63.42.56-1.86,1.81-1.82,0,.72.16,1.36.91,1.37.88-1-.14-3.12-.45-4.32h-.68C196.1,161.32,196.34,163.68,195.73,165.18Zm-22.94,1.36a3.39,3.39,0,0,0,1.82-3.63A15.81,15.81,0,0,0,172.79,166.54Zm-15.67,8.86c-2.45,3.9-4.87,7.84-6.35,12.71,2.31-1.92,7.49-6.51,7.72-10.21,0-.79.17-2.11-.91-2.5Z"/>
    </g>
    <g>
      <path class="cls-4" d="M220.11,163.54l.73-.26,1.63,2.05h0l0-2.62.72-.25,1.05,3-.49.17-.81-2.31h0v2.59l-.42.15-1.63-2h0l.82,2.31-.49.17Z"/>
      <path class="cls-4" d="M224.34,162l.54-.22,2.34,2.45-.54.23-.6-.66-1.14.48.06.89-.52.22Zm.57,1.84.88-.37-1-1.08h0Z"/>
      <path class="cls-4" d="M226.09,161.2l1.16-.56a1.6,1.6,0,0,1,1.39,2.84l-1.16.57Zm1.68,2.2.49-.23c.76-.38.71-.9.43-1.47s-.66-.94-1.43-.56l-.48.23Z"/>
      <path class="cls-4" d="M228.76,159.88l2-1.09.24.41-1.48.83.4.73,1.37-.77.22.4-1.37.76.45.81,1.51-.84.23.42-2,1.1Z"/>
      <path class="cls-4" d="M233,157.36l.46-.3,1.76,2.63-.46.31Z"/>
      <path class="cls-4" d="M233.86,156.78l.47-.34,2.52,1.06h0l-1.37-1.89.42-.3,1.86,2.56-.47.34-2.51-1h0l1.36,1.89-.42.3Z"/>
      <path class="cls-4" d="M239.73,154.89a.67.67,0,0,0,1,0c.37-.31.34-.61.19-.79a.38.38,0,0,0-.45-.13c-.22.08-.47.22-.88.41a.79.79,0,0,1-1-.16,1,1,0,0,1,.25-1.45,1.07,1.07,0,0,1,1.57,0l-.42.35a.57.57,0,0,0-.87,0c-.19.16-.37.44-.16.68a.41.41,0,0,0,.54.07l.84-.4a.85.85,0,0,1,1,.22c.46.53.18,1.15-.29,1.56a1.14,1.14,0,0,1-1.72,0Z"/>
      <path class="cls-4" d="M240.65,151.21l.41-.41,3.07,1.43-.41.41-.8-.4-.89.87.38.8-.4.4Zm1.19,1.49.68-.66-1.28-.65h0Z"/>
      <path class="cls-4" d="M242,149.88l.39-.42,2.68.53h0l-1.72-1.58.35-.38,2.33,2.14-.38.43-2.68-.53h0l1.72,1.57-.35.38Z"/>
      <path class="cls-4" d="M245.45,145.89l1.3-1.71.38.29-1,1.27.66.5.85-1.12.36.28-.85,1.12,1.13.85-.33.43Z"/>
      <path class="cls-4" d="M246.91,144l.83-1.23c.38-.56.84-.67,1.29-.37a.78.78,0,0,1,.37.87h0c.13-.14.4-.29.82,0a1.46,1.46,0,0,0,.78.33l-.32.48a1,1,0,0,1-.44-.19c-.48-.33-.76-.38-1,0l-.45.66,1.08.73-.3.45Zm1.49.36.51-.74a.48.48,0,0,0-.12-.73c-.34-.22-.55-.06-.71.18l-.49.73Z"/>
      <path class="cls-4" d="M249,140.83l.3-.49,3.33.61-.3.5-.87-.19-.64,1.07.57.68-.29.48Zm1.53,1.15.49-.81-1.4-.3h0Z"/>
      <path class="cls-4" d="M249.91,139.23l.27-.51,2.72-.16h0l-2.06-1.1.24-.45,2.8,1.48-.27.51-2.72.16h0l2.06,1.09-.24.46Z"/>
      <path class="cls-4" d="M253.09,135.09a.75.75,0,0,0-.9.44c-.27.6.15,1.11.71,1.36s1.21.25,1.49-.36a.81.81,0,0,0-.43-1.06l.23-.49a1.29,1.29,0,0,1,.61,1.74,1.67,1.67,0,0,1-3-1.38,1.22,1.22,0,0,1,1.54-.75Z"/>
      <path class="cls-4" d="M252.53,133.82l.21-.5,2.93,1.21-.21.5Z"/>
      <path class="cls-4" d="M255.06,133.21c.46.17.76-.1.91-.51s0-.7-.22-.78a.36.36,0,0,0-.45.1c-.16.18-.31.42-.57.78a.82.82,0,0,1-1,.37,1,1,0,0,1-.47-1.39,1.05,1.05,0,0,1,1.36-.77l-.19.51a.59.59,0,0,0-.76.44c-.09.23-.11.56.19.68a.42.42,0,0,0,.51-.21l.54-.76a.83.83,0,0,1,1-.28c.67.24.72.92.5,1.5a1.14,1.14,0,0,1-1.51.83Z"/>
      <path class="cls-4" d="M255.46,128.61a.76.76,0,0,0-.84.55c-.19.64.29,1.09.87,1.27s1.24.09,1.44-.55a.81.81,0,0,0-.56-1l.16-.51a1.29,1.29,0,0,1,.83,1.65,1.67,1.67,0,0,1-3.17-1,1.23,1.23,0,0,1,1.43-.94Z"/>
      <path class="cls-4" d="M257,125.13a1.5,1.5,0,1,1-2,1.05A1.52,1.52,0,0,1,257,125.13Zm-.59,2.37c.59.14,1.24,0,1.4-.63s-.35-1.06-.94-1.21-1.24,0-1.4.63S255.78,127.35,256.37,127.5Z"/>
    </g>
  </g>
</svg>
